<?xml version="1.0" ?><svg xmlns="http://www.w3.org/2000/svg" id="Layer_2" viewBox="0 0 32 32"><defs><style>.cls-1{fill:none;}.cls-1,.cls-2{stroke-width:0px;}</style></defs><g id="icons"><g id="Organization"><g id="File"><rect id="_Transparent_Rectangle_" class="cls-1" width="32" height="32"/><path class="cls-2" d="m4,10v-4h7.17l3.41,3.41.59.59h2.83v-2h-2l-3.41-3.41c-.38-.38-.88-.59-1.41-.59h-7.17c-1.1,0-2,.9-2,2v18h2v-14Z"/><path class="cls-2" d="m28,8h-2.59l4.59-4.59-1.41-1.41L2,28.59l1.41,1.41,2-2h22.59c1.1,0,2-.9,2-2V10c0-1.1-.9-2-2-2Zm0,18H7.41L23.41,10h4.59v16Z"/></g></g></g></svg>